# xmcd
#
# Track frame offsets:
#	150
#	11725
#	28627
#	41775
#	54765
#	70050
#	83570
#	100022
#	120485
#
# Disc length: 1798 seconds
# Revision: 2
# Processed by: cddbd v1.5.2PL0 Copyright (c) Steve Scherf et al.
# Submitted via: dBpowerAMP V12.0
#
DISCID=63070409
DTITLE=Virginia Squires - Variations
DYEAR=1988
DGENRE=Country
TTITLE0=Tall Dark Stranger
TTITLE1=Denver
TTITLE2=No One to Love Me Now
TTITLE3=I'll Be Going to Heaven Sometime
TTITLE4=Late Night Cry of the Whippoorwill
TTITLE5=In the Morning
TTITLE6=Memories of Home
TTITLE7=I've Just Seen the Rock of Ages
TTITLE8=You're Gonna Miss Me
EXTD=
EXTT0=
EXTT1=
EXTT2=
EXTT3=
EXTT4=
EXTT5=
EXTT6=
EXTT7=
EXTT8=
PLAYORDER=
